<?xml version="1.0" encoding="UTF-8"?>
<!DOCTYPE svg PUBLIC "-//W3C//DTD SVG 1.1//EN" "http://www.w3.org/Graphics/SVG/1.1/DTD/svg11.dtd">
<svg version="1.1" xmlns="http://www.w3.org/2000/svg" xmlns:xlink="http://www.w3.org/1999/xlink" x="0" y="0" width="680" height="1020" viewBox="0, 0, 680, 1020">
  <g id="546c2c11-79bc-4b38-9d63-ad95b0124a70">
    <path d="M352.411,515.611 C349.91,513.764 342.524,507.994 336.009,502.8 L324.16,493.348 L324.647,343.781 C325.083,212.373 325.391,193.047 327.199,184.596 C333.496,155.254 343.306,133.235 359.823,111.281 C374.084,92.327 390.088,78.759 411.594,67.371 C432.985,56.047 449.195,50.905 478.793,46.07 C487.962,44.57 498.35,42.441 501.876,41.338 C508.955,39.12 518.112,34.182 520.523,31.284 C523.639,27.539 524.319,29.707 524.319,43.39 C524.319,94.032 494.118,152.279 451.657,183.531 C433.062,197.228 408.145,206.935 387.588,208.513 C381.509,208.987 378.495,209.334 377.393,208.038 C376.238,206.705 377.162,203.576 378.854,196.958 C381.599,186.301 390.409,167.95 398.681,155.69 C402.425,150.138 412.71,138.186 421.546,129.132 C439.051,111.178 438.961,110.986 417.968,121.771 C388.511,136.903 368.21,162.487 361.491,192.932 C359.028,204.088 358.939,209.628 358.913,361.171 C358.9,447.361 358.451,518.112 357.925,518.419 C357.4,518.714 354.912,517.458 352.411,515.611 z" fill="#039E4E"/>
    <path d="M193.68,987.844 C141.819,976.944 97.05,941.19 74.557,892.702 C68.786,880.302 65.541,870.683 61.386,853.871 C59.347,845.6 59.129,826.722 58.463,612.137 L57.744,379.38 L53.653,370.749 C50.563,364.209 46.908,359.516 38.649,351.488 C26.518,339.677 22.363,332.367 19.888,318.491 C15.938,296.319 26.441,273.941 44.664,265.695 L51.332,262.681 L153.053,262.322 L254.774,261.963 L259.173,266.361 C264.072,271.26 264.469,273.261 261.622,278.75 C261.02,279.917 260.596,280.917 259.968,281.75 C256.339,286.624 245.874,286.406 153.541,286.406 L54.923,286.406 L50.563,289.317 C44.638,293.266 41.714,299.563 41.714,308.36 C41.714,320.197 44.42,325.57 56.193,337.176 C68.683,349.487 74.441,358.631 78.494,372.583 L81.469,382.881 L81.482,607.469 C81.482,825.645 81.405,843.304 86.24,859.488 C86.74,861.194 87.304,862.874 87.932,864.772 C104.565,915.606 145.885,953.578 196.886,964.889 C207.184,967.172 215.199,967.313 340.516,967.326 C469.425,967.351 473.567,967.274 484.147,964.748 C512.129,958.08 535.058,945.089 555.474,924.339 C571.774,907.784 583.418,888.958 590.561,867.606 C591.574,864.605 592.446,862.143 593.203,859.655 C598.499,842.252 598.269,823.157 598.281,608.174 C598.281,389.306 598.333,384.061 600.821,374.366 C604.488,360.016 608.964,352.616 621.685,339.805 C627.905,333.56 633.92,326.635 635.061,324.429 C637.78,319.171 638.78,304.731 636.831,298.832 C635.997,296.306 633.304,292.471 630.855,290.317 L626.405,286.406 L524.44,286.406 C427.554,286.406 418.09,286.495 414.794,282.045 C414.371,281.455 414.05,280.801 413.652,280.07 C411.203,275.479 412.088,269.132 415.64,265.784 L418.949,262.681 L520.362,262.335 C617.633,262.014 629.521,261.937 638.421,267.054 C639.729,267.798 640.96,268.657 642.384,269.632 C657.567,280.083 664.339,301.435 659.286,322.916 C656.606,334.291 652.104,341.241 639.947,352.77 C632.624,359.708 629.2,364.158 626.11,370.685 L622.006,379.38 L620.595,846.177 L617.813,857.218 C608.9,892.574 593.075,920.223 567.978,944.281 C544.176,967.082 517.477,981.342 486.173,987.947 C475.106,990.281 467.847,990.409 339.875,990.332 C212.852,990.268 204.568,990.127 193.68,987.844 z" fill="#000000"/>
    <path d="M219.233,940.927 C201.382,938.106 189.147,934.13 175.721,926.795 C145.174,910.111 121.154,878.256 113.626,844.439 L110.869,832.089 L110.869,622.416 L110.869,412.742 L122.411,412.344 C147.328,411.472 173.156,416.833 195.996,427.605 C219.348,438.621 230.877,446.777 260.091,473.015 C269.516,481.479 281.635,492.354 287.021,497.188 C349.924,553.64 422.034,574.377 489.822,555.538 C510.059,549.908 537.348,536.148 556.841,521.721 C563.022,517.155 568.383,513.411 568.742,513.411 C569.114,513.411 569.242,585.982 569.024,674.674 L568.652,835.936 L565.664,846.837 C553.045,892.824 520.818,925.064 473.792,938.721 C466.739,940.773 455.877,940.979 344.268,941.196 C277.262,941.338 221.003,941.209 219.233,940.927 z M362.222,898.351 C405.144,875.768 460.352,846.042 464.815,843.092 C467.957,841.028 471.432,837.001 473.792,832.692 L477.639,825.677 L477.998,752.08 C478.409,670.108 478.306,668.89 470.317,661.349 C467.995,659.169 449.644,648.564 429.549,637.792 C409.453,627.032 385.203,614.003 375.687,608.848 C349.154,594.472 347.307,593.792 336.676,594.485 C327.879,595.075 326.571,595.639 294.254,613.054 C275.916,622.928 249.665,636.971 235.904,644.242 C222.144,651.526 209.538,658.682 207.884,660.144 C206.229,661.606 203.639,665.12 202.113,667.941 C199.394,672.994 199.355,674.135 198.984,746.63 C198.56,830.858 198.548,830.679 208.127,839.643 C211.628,842.9 233.327,855.16 271.171,875.229 L328.879,905.828 L338.497,905.802 C347.705,905.764 348.718,905.456 362.222,898.351 z M308.912,872.524 C302.872,869.164 282.097,858.045 262.745,847.824 C243.406,837.591 225.978,827.742 224.042,825.934 L220.515,822.638 L220.515,757.992 C220.515,696.988 220.644,693.23 222.862,691.217 C224.145,690.05 226.248,689.101 227.517,689.101 C231.159,689.101 319.466,736.255 323.75,740.487 L327.597,744.296 L327.956,808.557 C328.264,864.855 328.058,873.203 326.314,875.858 C325.224,877.538 323.339,878.846 322.121,878.769 C320.903,878.705 314.965,875.896 308.912,872.524 z M307.117,850.44 C313.862,847.363 315.632,839.527 312.195,827.96 C310.079,820.83 303.18,813.494 298.614,813.494 C292.151,813.494 287.188,820.317 287.214,829.165 C287.226,835.641 292.805,846.388 297.717,849.376 C302.692,852.415 302.756,852.415 307.117,850.44 z M253.345,818.201 C260.706,811.866 258.308,791.809 249.536,786.461 C243.701,782.896 237.956,783.255 234.712,787.372 C229.172,794.425 232.429,812.122 240.406,818.406 C244.971,821.997 249.011,821.933 253.345,818.201 z M307.117,785.038 C314.465,781.691 316.145,771.059 311.054,760.12 C307.501,752.503 303.68,749.374 297.909,749.374 C290.356,749.374 285.367,759.992 288.304,769.815 C290.227,776.228 294.895,782.96 298.781,784.922 C302.705,786.91 302.987,786.91 307.117,785.038 z M253.845,751.31 C259.937,744.834 258.18,726.945 250.767,719.994 C249.229,718.545 246.138,716.993 243.907,716.544 C240.521,715.865 239.213,716.378 235.956,719.635 C232.467,723.123 232.057,724.341 232.057,731.369 C232.057,748.515 245.189,760.518 253.845,751.31 z M350.667,874.563 C348.91,871.882 348.705,863.931 349.026,809.48 C349.385,749.759 349.5,747.284 352.001,743.013 C354.245,739.192 361.119,735.088 400.733,713.864 C426.112,700.271 448.131,689.139 449.67,689.126 C451.221,689.114 453.389,690.383 454.479,691.948 C456.223,694.436 456.479,702.823 456.479,757.479 C456.479,813.584 456.261,820.535 454.35,823.754 C452.991,826.062 448.003,829.589 440.565,833.5 C434.152,836.873 413.044,848.183 393.667,858.622 C374.277,869.074 357.131,877.615 355.541,877.615 C353.925,877.615 351.783,876.281 350.667,874.563 z M431.806,819.919 C443.129,813.007 445.451,794.13 435.807,787.372 C431.408,784.281 427.612,784.807 422.624,789.193 C413.531,797.169 411.39,813.34 418.597,819.547 C422.777,823.138 426.355,823.241 431.806,819.919 z M383.613,781.857 C391.063,775.125 393.654,759.415 388.422,752.747 C385.023,748.438 377.637,748.104 372.622,752.054 C363.902,758.915 361.311,774.022 367.582,781.473 C370.635,785.102 371.584,785.487 376.021,784.884 C378.765,784.512 382.189,783.153 383.613,781.857 z M328.879,718.417 C290.073,698.488 240.636,671.622 240.072,670.134 C239.675,669.095 239.867,667.402 240.508,666.389 C241.149,665.376 261.578,653.77 285.918,640.613 L330.162,616.67 L338.497,616.658 L346.833,616.645 L385.947,637.638 C407.465,649.192 427.805,660.105 431.152,661.888 C437.423,665.235 439.192,669.275 435.64,672.122 C433.665,673.712 391.063,696.628 363.876,710.722 C341.678,722.225 337.907,723.046 328.879,718.417 z M346.282,677.559 C357.041,674.571 359.849,664.325 351.45,658.682 C348,656.361 345.32,655.758 338.497,655.758 C327.571,655.758 321.416,659.272 320.774,665.876 C319.851,675.379 332.803,681.304 346.282,677.559 z" fill="#FA8D00"/>
    <path d="M228.635,274.076 C244.623,274.076 258.635,274.076 258.635,274.076" fill-opacity="0" stroke="#000000" stroke-width="24" stroke-linecap="round"/>
  </g>
</svg>
